<svg xmlns="http://www.w3.org/2000/svg" viewBox="0 0 256 256"><path fill="#fc3850" d="M241.4 112.5h-170l15.8 86.2H223l18.6-86.3c-.1.1-.1.1-.2.1z"/><path fill="#f9677f" d="M241.4 94.3H68.1l3.3 18.2h170c3.5 0 6.3-2.8 6.3-6.3v-5.6c0-3.5-2.8-6.3-6.3-6.3z"/><circle cx="186.9" cy="230.9" r="22.5" fill="#2a4a97"/><circle cx="114.6" cy="230.9" r="22.5" fill="#2a4a97"/><path fill="#c5e3ff" d="M224.8 198.8H87.3L60.4 52.3c-.7-3.8-4-6.6-7.9-6.6h-40c-4.4 0-8 3.6-8 8s3.6 8 8 8h33.4l26.8 146.5c.7 3.8 4 6.6 7.9 6.6H99c8.7-8.5 22.6-8.5 31.3 0h41c8.7-8.5 22.6-8.5 31.3 0h22.2c4.4 0 8-3.6 8-8s-3.5-8-8-8z"/><circle cx="186.9" cy="230.9" r="9.1" fill="#c5e3ff"/><circle cx="114.6" cy="230.9" r="9.1" fill="#c5e3ff"/><path fill="#f9677f" d="M106.9 131.1h.5c4 0 7.2 3.2 7.2 7.2v32.4c0 4-3.2 7.2-7.2 7.2h-.5c-4 0-7.2-3.2-7.2-7.2v-32.4c.1-4 3.3-7.2 7.2-7.2zm31.6 0h.5c4 0 7.2 3.2 7.2 7.2v32.4c0 4-3.2 7.2-7.2 7.2h-.5c-4 0-7.2-3.2-7.2-7.2v-32.4c0-4 3.2-7.2 7.2-7.2zm31.5 0h.5c4 0 7.2 3.2 7.2 7.2v32.4c0 4-3.2 7.2-7.2 7.2h-.5c-4 0-7.2-3.2-7.2-7.2v-32.4c.1-4 3.3-7.2 7.2-7.2zm31.6 0h.5c4 0 7.2 3.2 7.2 7.2v32.4c0 4-3.2 7.2-7.2 7.2h-.5c-4 0-7.2-3.2-7.2-7.2v-32.4c0-4 3.2-7.2 7.2-7.2z"/><path fill="#facb35" d="M154.6 2.6c-4.4 0-8 3.6-8 8v28.7c0 4.4 3.6 8 8 8s8-3.6 8-8V10.6c-.1-4.4-3.6-8-8-8zm64.2 29.7c-3.1-3.1-8.2-3.1-11.3 0l-20.3 20.3c-3.1 3.1-3.1 8.2 0 11.3 3.1 3.1 8.2 3.1 11.3 0l20.3-20.3c3.1-3.1 3.1-8.1 0-11.3zm-117.1 0c-3.1-3.1-8.2-3.1-11.3 0-3.1 3.1-3.1 8.1 0 11.2l20.3 20.3c3.1 3.1 8.2 3.1 11.3 0s3.1-8.2 0-11.3l-20.3-20.2z"/><path d="M223 201.3H87.3c-1.2 0-2.2-.9-2.5-2L69 113c-.2-1.4.6-2.7 2-2.9h170.6c.8 0 1.5.3 2 .9.5.6.7 1.4.5 2.1l-18.6 86.3c-.3 1.1-1.3 1.9-2.5 1.9zm-133.7-5H221l17.5-81.2H74.4l14.9 81.2z"/><path d="M241.4 115h-170c-1.2 0-2.2-.9-2.5-2l-3.3-18.2c-.2-1.4.6-2.7 2-2.9H241.3c4.8 0 8.8 3.9 8.8 8.8v5.6c.1 4.8-3.8 8.7-8.7 8.7zm-167.9-5h167.9c2.1 0 3.8-1.7 3.8-3.8v-5.6c0-2.1-1.7-3.8-3.8-3.8H71.1l2.4 13.2zm113.4 145.9c-13.8 0-25-11.2-25-25s11.2-25 25-25 25 11.2 25 25-11.2 25-25 25zm0-45c-11 0-20 9-20 20s9 20 20 20 20-9 20-20-8.9-20-20-20zm-72.3 45c-13.8 0-25-11.2-25-25s11.2-25 25-25 25 11.2 25 25-11.2 25-25 25zm0-45c-11 0-20 9-20 20s9 20 20 20 20-9 20-20-8.9-20-20-20z"/><path d="M224.8 217.3h-22.2c-.7 0-1.3-.3-1.7-.7-7.7-7.6-20.1-7.6-27.8 0-.5.5-1.1.7-1.7.7h-41c-.7 0-1.3-.3-1.7-.7-7.7-7.6-20.1-7.6-27.8 0-.5.5-1.1.7-1.7.7H80.6c-5.1 0-9.4-3.6-10.3-8.6L43.8 64.3H12.5C6.7 64.3 2 59.6 2 53.8s4.7-10.5 10.5-10.5h40.1c5.1 0 9.4 3.6 10.3 8.6l26.5 144.4h135.5c5.8 0 10.5 4.7 10.5 10.5-.1 5.8-4.8 10.5-10.6 10.5zm-21.2-5h21.2c3 0 5.5-2.5 5.5-5.5s-2.5-5.5-5.5-5.5H87.3c-1.2 0-2.2-.9-2.5-2L57.9 52.8c-.5-2.6-2.8-4.5-5.4-4.5h-40c-3 0-5.5 2.5-5.5 5.5s2.5 5.5 5.5 5.5h33.4c1.2 0 2.2.9 2.5 2l26.8 146.5c.5 2.6 2.8 4.5 5.4 4.5H98c9.5-8.5 23.8-8.5 33.3 0h39c9.5-8.5 23.8-8.5 33.3 0zm-49-162.5c-5.8 0-10.5-4.7-10.5-10.5V10.6c0-5.8 4.7-10.5 10.5-10.5s10.5 4.7 10.5 10.5v28.7c-.1 5.8-4.8 10.5-10.5 10.5zm0-44.7c-3 0-5.5 2.5-5.5 5.5v28.7c0 3 2.5 5.5 5.5 5.5s5.5-2.5 5.5-5.5V10.6c-.1-3.1-2.5-5.5-5.5-5.5zm38.2 63.7c-5.8 0-10.5-4.7-10.5-10.5 0-2.8 1.1-5.4 3.1-7.4l20.3-20.3c4.1-4.1 10.7-4.1 14.8 0 4.1 4.1 4.1 10.7 0 14.8l-20.3 20.3c-1.9 2-4.6 3.1-7.4 3.1zm20.3-36.3c-1.5 0-2.8.6-3.9 1.6l-20.3 20.3c-2.1 2.1-2.1 5.6 0 7.7s5.6 2.1 7.7 0L217 41.8c2.1-2.1 2.1-5.6 0-7.7-1-1-2.4-1.6-3.9-1.6zm-96.8 36.3c-2.8 0-5.4-1.1-7.4-3.1L88.6 45.4c-4.1-4.1-4.1-10.7-.1-14.8 4.1-4.1 10.7-4.1 14.8-.1l.1.1 20.3 20.3c4.1 4.1 4.1 10.7 0 14.8-1.9 2-4.6 3.1-7.4 3.1zM96 32.5c-3 0-5.5 2.5-5.5 5.5 0 1.5.6 2.8 1.6 3.9l20.3 20.3c2.1 2.1 5.6 2.1 7.7 0 2.1-2.1 2.1-5.6 0-7.7L99.9 34.1c-1-1-2.4-1.6-3.9-1.6z"/><path d="M251.6 105.9H69.8c-1.4 0-2.5-1.1-2.5-2.5s1.1-2.5 2.5-2.5h181.8c1.4 0 2.5 1.1 2.5 2.5s-1.2 2.5-2.5 2.5zm-64.7 136.6c-6.4 0-11.6-5.2-11.6-11.6s5.2-11.6 11.6-11.6c6.4 0 11.6 5.2 11.6 11.6.1 6.4-5.1 11.6-11.6 11.6zm0-18.2c-3.7 0-6.6 3-6.6 6.6s3 6.6 6.6 6.6c3.7 0 6.6-3 6.6-6.6.1-3.6-2.9-6.6-6.6-6.6zm-72.3 18.2c-6.4 0-11.6-5.2-11.6-11.6 0-6.4 5.2-11.6 11.6-11.6 6.4 0 11.6 5.2 11.6 11.6 0 6.4-5.1 11.6-11.6 11.6zm0-18.2c-3.7 0-6.6 3-6.6 6.6 0 3.7 3 6.6 6.6 6.6 3.7 0 6.6-3 6.6-6.6.1-3.6-2.9-6.6-6.6-6.6zm-7.1-43.9h-.5c-5.3 0-9.7-4.3-9.7-9.7v-32.4c0-5.3 4.3-9.7 9.7-9.7h.5c5.3 0 9.7 4.3 9.7 9.7v32.4c-.1 5.3-4.4 9.7-9.7 9.7zm-.6-46.8c-2.6 0-4.7 2.1-4.7 4.7v32.4c0 2.6 2.1 4.7 4.7 4.7h.5c2.6 0 4.7-2.1 4.7-4.7v-32.4c0-2.6-2.1-4.7-4.7-4.7h-.5zm32.1 46.8h-.5c-5.3 0-9.7-4.3-9.7-9.7v-32.4c0-5.3 4.3-9.7 9.7-9.7h.5c5.3 0 9.7 4.3 9.7 9.7v32.4c0 5.3-4.3 9.7-9.7 9.7zm-.5-46.8c-2.6 0-4.7 2.1-4.7 4.7v32.4c0 2.6 2.1 4.7 4.7 4.7h.5c2.6 0 4.7-2.1 4.7-4.7v-32.4c0-2.6-2.1-4.7-4.7-4.7h-.5zm32.1 46.8h-.6c-5.3 0-9.7-4.3-9.7-9.7v-32.4c0-5.3 4.3-9.7 9.7-9.7h.5c5.3 0 9.7 4.3 9.7 9.7v32.4c0 5.3-4.3 9.7-9.6 9.7zm-.6-46.8c-2.6 0-4.7 2.1-4.7 4.7v32.4c0 2.6 2.1 4.7 4.7 4.7h.5c2.6 0 4.7-2.1 4.7-4.7v-32.4c0-2.6-2.1-4.7-4.7-4.7h-.5zm32.1 46.8h-.5c-5.3 0-9.7-4.3-9.7-9.7v-32.4c0-5.3 4.3-9.7 9.7-9.7h.5c5.3 0 9.7 4.3 9.7 9.7v32.4c0 5.3-4.3 9.7-9.7 9.7zm-.5-46.8c-2.6 0-4.7 2.1-4.7 4.7v32.4c0 2.6 2.1 4.7 4.7 4.7h.5c2.6 0 4.7-2.1 4.7-4.7v-32.4c0-2.6-2.1-4.7-4.7-4.7h-.5z"/></svg>